{
    "asset" : {
        "generator" : "Khronos glTF Blender I/O v1.6.16",
        "version" : "2.0"
    },
    "scene" : 0,
    "scenes" : [
        {
            "name" : "Scene",
            "nodes" : [
                0
            ]
        }
    ],
    "nodes" : [
        {
            "mesh" : 0,
            "name" : "Cube",
            "scale" : [
                0.21287661790847778,
                0.14901362359523773,
                0.14901362359523773
            ],
            "translation" : [
                0.007667064666748047,
                0,
                0
            ]
        }
    ],
    "materials" : [
        {
            "doubleSided" : true,
            "name" : "Material",
            "pbrMetallicRoughness" : {
                "baseColorFactor" : [
                    0.800000011920929,
                    0.800000011920929,
                    0.800000011920929,
                    1
                ],
                "metallicFactor" : 0,
                "roughnessFactor" : 0.4000000059604645
            }
        }
    ],
    "meshes" : [
        {
            "name" : "Cube",
            "primitives" : [
                {
                    "attributes" : {
                        "POSITION" : 0,
                        "NORMAL" : 1,
                        "TEXCOORD_0" : 2
                    },
                    "indices" : 3,
                    "material" : 0
                }
            ]
        }
    ],
    "accessors" : [
        {
            "bufferView" : 0,
            "componentType" : 5126,
            "count" : 143,
            "max" : [
                0.2293514609336853,
                0.20000004768371582,
                0.19999998807907104
            ],
            "min" : [
                -0.3706485629081726,
                -0.19999998807907104,
                -0.19999998807907104
            ],
            "type" : "VEC3"
        },
        {
            "bufferView" : 1,
            "componentType" : 5126,
            "count" : 143,
            "type" : "VEC3"
        },
        {
            "bufferView" : 2,
            "componentType" : 5126,
            "count" : 143,
            "type" : "VEC2"
        },
        {
            "bufferView" : 3,
            "componentType" : 5123,
            "count" : 204,
            "type" : "SCALAR"
        }
    ],
    "bufferViews" : [
        {
            "buffer" : 0,
            "byteLength" : 1716,
            "byteOffset" : 0
        },
        {
            "buffer" : 0,
            "byteLength" : 1716,
            "byteOffset" : 1716
        },
        {
            "buffer" : 0,
            "byteLength" : 1144,
            "byteOffset" : 3432
        },
        {
            "buffer" : 0,
            "byteLength" : 408,
            "byteOffset" : 4576
        }
    ],
    "buffers" : [
        {
            "byteLength" : 4984,
            "uri" : "data:application/octet-stream;base64,"
        }
    ]
}
